<svg xmlns="http://www.w3.org/2000/svg" fill="none" viewBox="0 0 24 24" stroke="currentColor"><rect width="24" height="24" fill="#1a2340"/><path d="M22.46 6c-.77.35-1.6.59-2.47.7a4.3 4.3 0 001.88-2.37 8.59 8.59 0 01-2.72 1.04A4.28 4.28 0 0016.11 4c-2.37 0-4.29 1.92-4.29 4.29 0 .34.04.67.11.99C7.69 9.13 4.07 7.38 1.64 4.7c-.37.64-.58 1.39-.58 2.19 0 1.51.77 2.84 1.94 3.62-.72-.02-1.4-.22-1.99-.55v.06c0 2.11 1.5 3.87 3.5 4.27-.36.1-.74.16-1.13.16-.28 0-.54-.03-.8-.08.54 1.7 2.11 2.94 3.97 2.97A8.6 8.6 0 012 19.54c-.29 0-.57-.02-.85-.05A12.13 12.13 0 007.29 21.5c7.55 0 11.68-6.26 11.68-11.68 0-.18-.01-.36-.02-.54A8.18 8.18 0 0024 5.1a8.36 8.36 0 01-2.54.7z" fill="#6eeaff"/></svg>